<svg xmlns="http://www.w3.org/2000/svg" viewBox="0 0 320 100" width="320" height="100" dir="rtl">
  <rect width="320" height="100" rx="24" fill="#FFFBF0"/>
  <!-- Symbol -->
  <g transform="translate(18, 14)">
    <rect width="72" height="72" rx="20" fill="#0D9488"/>
    <path d="M 27,23 A 10.5,10.5 0 0,1 45,23" stroke="#FDE68A" stroke-width="2.6" stroke-linecap="round" fill="none"/>
    <path d="M 30,28.5 A 7,7 0 0,1 42,28.5" stroke="#F59E0B" stroke-width="2.8" stroke-linecap="round" fill="none"/>
    <path d="M 33,33.5 A 3.5,3.5 0 0,1 39,33.5" stroke="#FBBF24" stroke-width="2.8" stroke-linecap="round" fill="none"/>
    <path d="M 36,41 C 32,39 25,38 20,39.5 L 20,51 C 25,49.5 32,50.5 36,53 Z" fill="#FFFBEB"/>
    <path d="M 36,41 C 40,39 47,38 52,39.5 L 52,51 C 47,49.5 40,50.5 36,53 Z" fill="#FFFFFF"/>
    <rect x="35.3" y="40.5" width="1.4" height="13" rx="0.7" fill="#D97706"/>
    <path d="M 20,51.5 C 25,50 32,51 36,53.5 C 40,51 47,50 52,51.5 L 52,52.5 C 47,51 40,52 36,54.5 C 32,52 25,51 20,52.5 Z" fill="#115E59"/>
  </g>
  <!-- Text -->
  <text x="106" y="52" font-family="'Tajawal', 'Noto Sans Arabic', sans-serif" font-size="28" font-weight="900" fill="#134E4A">صدى حكايتي</text>
  <text x="106" y="74" font-family="'Tajawal', sans-serif" font-size="14" font-weight="700" fill="#0D9488">My Memory Tells</text>
</svg>
